<?xml version="1.0" encoding="UTF-8" standalone="no"?>
<svg
   id="svg"
   inkscape:version="1.2.2 (b0a8486541, 2022-12-01)"
   sodipodi:docname="device.svg"
   version="1.1"
   viewBox="0 0 22 22"
   xmlns:inkscape="http://www.inkscape.org/namespaces/inkscape"
   xmlns:sodipodi="http://sodipodi.sourceforge.net/DTD/sodipodi-0.dtd"
   xmlns="http://www.w3.org/2000/svg"
   xmlns:svg="http://www.w3.org/2000/svg"
   xmlns:rdf="http://www.w3.org/1999/02/22-rdf-syntax-ns#"
   xmlns:cc="http://creativecommons.org/ns#"
   xmlns:dc="http://purl.org/dc/elements/1.1/">
  <metadata
     id="metadata28">
    <rdf:RDF>
      <cc:Work
         rdf:about="">
        <dc:format>image/svg+xml</dc:format>
        <dc:type
           rdf:resource="http://purl.org/dc/dcmitype/StillImage" />
        <dc:title />
      </cc:Work>
    </rdf:RDF>
  </metadata>
  <sodipodi:namedview
     id="namedview33"
     bordercolor="#666666"
     borderopacity="1"
     gridtolerance="10"
     guidetolerance="10"
     inkscape:bbox-nodes="true"
     inkscape:current-layer="svg"
     inkscape:cx="18.296388"
     inkscape:cy="-8.5736697"
     inkscape:object-nodes="true"
     inkscape:object-paths="true"
     inkscape:pageopacity="0"
     inkscape:pageshadow="2"
     inkscape:snap-bbox="true"
     inkscape:snap-bbox-edge-midpoints="true"
     inkscape:snap-intersection-paths="true"
     inkscape:snap-midpoints="true"
     inkscape:snap-nodes="true"
     inkscape:snap-smooth-nodes="true"
     inkscape:window-height="1904"
     inkscape:window-maximized="1"
     inkscape:window-width="3840"
     inkscape:window-x="1920"
     inkscape:window-y="82"
     inkscape:zoom="11.313708"
     objecttolerance="10"
     pagecolor="#c8c8c8"
     showgrid="true"
     showguides="true"
     inkscape:document-rotation="0"
     inkscape:pagecheckerboard="0"
     inkscape:lockguides="false"
     inkscape:showpageshadow="0"
     inkscape:deskcolor="#c8c8c8">
    <inkscape:grid
       id="grid842"
       type="xygrid" />
  </sodipodi:namedview>
  <defs
     id="defs3">
    <style
       id="current-color-scheme"
       type="text/css">.ColorScheme-Text { color:#dedede; } .ColorScheme-Highlight { color:#5294e2; } .ColorScheme-ButtonBackground { color:#dedede; }</style>
  </defs>
  <g
     id="16-16-device-notifier">
    <rect
       style="opacity:0.2;fill:none;fill-opacity:1;stroke:none"
       id="rect4182"
       width="15.999985"
       height="15.999985"
       x="0"
       y="26.000002" />
    <g
       transform="translate(-7.6293945e-6)"
       id="g999">
      <path
         inkscape:connector-curvature="0"
         style="opacity:1;fill:#fbfbfb;fill-opacity:1;stroke:none;stroke-width:1.28900659;stroke-miterlimit:4;stroke-dasharray:none;stroke-opacity:1"
         d="m 5,31 v 9 h 6 v -9 z m 1,1 h 4 v 7.076172 H 6 Z"
         id="rect945" />
      <path
         style="opacity:1;fill:#fbfbfb;fill-opacity:1;stroke:none;stroke-width:0.70164645;stroke-miterlimit:4;stroke-dasharray:none;stroke-opacity:1"
         d="M 6 29 L 6 32 L 10 32 L 10 29 L 6 29 z M 7 30 L 9 30 L 9 31 L 7 31 L 7 30 z "
         transform="translate(7.6293945e-6)"
         id="rect979" />
    </g>
  </g>
  <g
     id="22-22-device-notifier">
    <rect
       y="1.2617187e-05"
       x="9.9999997e-06"
       height="21.999985"
       width="21.999985"
       id="rect4157"
       style="opacity:0.2;fill:none;fill-opacity:1;stroke:none" />
    <g
       id="g1588"
       transform="translate(-18,-1)">
      <path
         id="rect877"
         style="fill:#fffffe;stroke:none;stroke-width:2.17423;stroke-linecap:round;stroke-linejoin:round"
         d="m 25,7 c -1.108,0 -2,0.892 -2,2 v 10 c 0,1.108 0.892,2 2,2 h 8 c 1.108,0 2,-0.892 2,-2 V 9 C 35,7.892 34.108,7 33,7 Z m 0,1 h 8 c 0.554,0 1,0.446 1,1 v 10 c 0,0.554 -0.446,1 -1,1 h -8 c -0.554,0 -1,-0.446 -1,-1 V 9 c 0,-0.554 0.446,-1 1,-1 z"
         sodipodi:nodetypes="ssssssssssssssssss" />
      <path
         id="rect1303"
         style="fill:#fffffe;stroke:none;stroke-width:2;stroke-linecap:round;stroke-linejoin:round"
         d="m 27,3 c -0.554,0 -1,0.446 -1,1 v 3 c 0,0.554 0.446,1 1,1 h 4 c 0.554,0 1,-0.446 1,-1 V 4 C 32,3.446 31.554,3 31,3 Z m 0,1 h 4 v 3 h -4 z"
         sodipodi:nodetypes="sssssssssccccc" />
    </g>
  </g>
  <g
     id="device-notifier">
    <rect
       y="-31.999992"
       x="-33.999992"
       height="31.999985"
       width="31.999985"
       id="rect4151-3"
       style="opacity:0.2;fill:none;fill-opacity:1;stroke:none" />
    <path
       id="path3153"
       style="fill:#ffffff;fill-opacity:1;fill-rule:evenodd;stroke:none;stroke-linecap:round;stroke-linejoin:round;paint-order:stroke fill markers"
       d="m -9.5,-3 c 1.38071,0 2.5,-1.11929 2.5,-2.5 v -21 c 0,-1.3807 -1.11929,-2.5 -2.5,-2.5 h -17 c -1.3807,0 -2.5,1.1193 -2.5,2.5 v 21 c 0,1.38071 1.1193,2.5 2.5,2.5 z m 0,-1 H -13 v -5.5 c 0,-0.82843 -0.67157,-1.5 -1.5,-1.5 H -28 v -15.5 c 0,-0.8284 0.6716,-1.5 1.5,-1.5 h 17 c 0.82843,0 1.5,0.6716 1.5,1.5 v 21 C -8,-4.67157 -8.67157,-4 -9.5,-4 Z M -14,-4 H -26.5 C -27.3284,-4 -28,-4.67157 -28,-5.5 V -10 h 13.5 c 0.27614,0 0.5,0.22386 0.5,0.5 z"
       sodipodi:nodetypes="sssssssssscsscsssssscsscssc" />
    <path
       id="path589"
       style="opacity:1;fill:#ffffff;fill-rule:evenodd;stroke-width:1.11111;stroke-linecap:round;stroke-linejoin:round;paint-order:stroke fill markers;fill-opacity:1"
       d="M -18 -25 A 5 5 0 0 0 -23 -20 A 5 5 0 0 0 -18 -15 A 5 5 0 0 0 -13 -20 A 5 5 0 0 0 -18 -25 z M -18 -24 A 4 4 0 0 1 -14 -20 A 4 4 0 0 1 -18 -16 A 4 4 0 0 1 -22 -20 A 4 4 0 0 1 -18 -24 z " />
  </g>
</svg>
