<?xml version="1.0" encoding="UTF-8" standalone="no"?>
<svg
   id="svg4306"
   width="44"
   height="28"
   version="1.1"
   style="enable-background:new"
   sodipodi:docname="maximize.svg"
   inkscape:version="1.2.2 (b0a8486541, 2022-12-01)"
   xmlns:inkscape="http://www.inkscape.org/namespaces/inkscape"
   xmlns:sodipodi="http://sodipodi.sourceforge.net/DTD/sodipodi-0.dtd"
   xmlns:xlink="http://www.w3.org/1999/xlink"
   xmlns="http://www.w3.org/2000/svg"
   xmlns:svg="http://www.w3.org/2000/svg"
   xmlns:rdf="http://www.w3.org/1999/02/22-rdf-syntax-ns#"
   xmlns:cc="http://creativecommons.org/ns#"
   xmlns:dc="http://purl.org/dc/elements/1.1/">
  <metadata
     id="metadata24">
    <rdf:RDF>
      <cc:Work
         rdf:about="">
        <dc:format>image/svg+xml</dc:format>
        <dc:type
           rdf:resource="http://purl.org/dc/dcmitype/StillImage" />
      </cc:Work>
    </rdf:RDF>
  </metadata>
  <defs
     id="defs22">
    <filter
       color-interpolation-filters="sRGB"
       height="1.048"
       width="1.048"
       y="-0.024"
       x="-0.024"
       id="filter11290">
      <feGaussianBlur
         id="feGaussianBlur879"
         stdDeviation="0.15875313" />
    </filter>
    <linearGradient
       gradientUnits="userSpaceOnUse"
       gradientTransform="translate(-0.0078552,-5.0139e-5)"
       y2="0.64687002"
       y1="16.296"
       x2="16.388"
       x1="0.73910999"
       id="linearGradient1005">
      <stop
         id="stop882"
         offset="0"
         stop-color="#00dc96" />
      <stop
         id="stop884"
         offset="1"
         stop-color="#14d29b" />
    </linearGradient>
  </defs>
  <sodipodi:namedview
     pagecolor="#c8c8c8"
     bordercolor="#666666"
     borderopacity="1"
     objecttolerance="10"
     gridtolerance="10"
     guidetolerance="10"
     inkscape:pageopacity="0"
     inkscape:pageshadow="2"
     inkscape:window-width="3840"
     inkscape:window-height="1904"
     id="namedview20"
     showgrid="true"
     inkscape:zoom="7.8571436"
     inkscape:cx="31.309088"
     inkscape:cy="-8.5909083"
     inkscape:window-x="1920"
     inkscape:window-y="82"
     inkscape:window-maximized="1"
     inkscape:current-layer="svg4306"
     inkscape:snap-bbox="true"
     inkscape:bbox-nodes="true"
     inkscape:snap-bbox-edge-midpoints="true"
     inkscape:document-rotation="0"
     inkscape:showpageshadow="0"
     inkscape:pagecheckerboard="0"
     inkscape:deskcolor="#c8c8c8">
    <inkscape:grid
       type="xygrid"
       id="grid949"
       originx="0"
       originy="0" />
  </sodipodi:namedview>
  <use
     x="0"
     y="0"
     xlink:href="#g1000"
     id="use1002"
     transform="translate(28.476029)"
     width="100%"
     height="100%" />
  <g
     id="active-center">
    <g
       transform="matrix(4.376295,0,0,3.3070871,-2.315792,32.375002)"
       id="use1626">
      <rect
         y="-9.7895832"
         x="0.52916652"
         height="8.4666662"
         width="10.054167"
         id="rect3776"
         style="opacity:0.003;fill:#000000;fill-opacity:1;stroke-width:0.348723" />
    </g>
    <g
       transform="matrix(3.7795276,0,0,3.7795276,-70.000007,76.999999)"
       id="use1638">
      <rect
         y="-19.579166"
         x="21.431252"
         height="5.8208332"
         width="5.8208332"
         id="rect3780"
         style="opacity:0.003;fill:#000000;fill-opacity:1;stroke-width:0.220007" />
      <path
         id="path3782"
         style="color:#232629;fill:#ffffff;fill-opacity:1"
         d="m 80,-90.000001 c -1.107999,0 -2,0.891997 -2,2 v 8 c 0,1.108003 0.892001,2 2,2 h 8 c 1.108003,0 2,-0.891997 2,-2 v -8 c 0,-1.108003 -0.891997,-2 -2,-2 z m 0,1 h 8 c 0.554003,0 1,0.446001 1,1 v 8 c 0,0.554003 -0.445997,1 -1,1 h -8 c -0.553999,0 -1,-0.445997 -1,-1 v -8 c 0,-0.553999 0.446001,-1 1,-1 z"
         transform="matrix(0.26458333,0,0,0.26458333,2.1166685,5.5562504)"
         class="ColorScheme-Text"
         sodipodi:nodetypes="ssssssssssssssssss" />
    </g>
  </g>
  <g
     id="inactive-center"
     style="enable-background:new">
    <g
       transform="matrix(4.376295,0,0,3.3070868,41.684208,32.375002)"
       id="use1624"
       style="fill:#646464;fill-opacity:1">
      <rect
         y="-9.7895832"
         x="0.52916652"
         height="8.4666662"
         width="10.054167"
         id="rect3873"
         style="opacity:0.003;fill:#646464;fill-opacity:1;stroke-width:0.348723" />
    </g>
    <g
       transform="matrix(3.7795276,0,0,3.7795276,-26.000007,76.999998)"
       id="use1644"
       style="opacity:1">
      <rect
         y="-19.579166"
         x="21.431252"
         height="5.8208332"
         width="5.8208332"
         id="rect3883"
         style="opacity:0.003;fill:#000000;fill-opacity:1;stroke-width:0.220007" />
      <path
         id="path3885"
         style="color:#232629;opacity:0.4;fill:#ffffff;fill-opacity:1"
         d="m 80,-90 c -1.107999,0 -2,0.891997 -2,2 v 8 c 0,1.108003 0.892001,2 2,2 h 8 c 1.108003,0 2,-0.891997 2,-2 v -8 c 0,-1.108003 -0.891997,-2 -2,-2 z m 0,1 h 8 c 0.554003,0 1,0.446001 1,1 v 8 c 0,0.554003 -0.445997,1 -1,1 h -8 c -0.553999,0 -1,-0.445997 -1,-1 v -8 c 0,-0.553999 0.446001,-1 1,-1 z"
         transform="matrix(0.26458333,0,0,0.26458333,2.1166685,5.5562504)"
         class="ColorScheme-Text"
         sodipodi:nodetypes="ssssssssssssssssss" />
    </g>
  </g>
  <g
     id="deactivated-center"
     style="enable-background:new">
    <rect
       y="1.8900739e-06"
       x="87.999992"
       height="27.999994"
       width="44.000004"
       id="use1632"
       style="opacity:0.00100002;fill:#646464;fill-opacity:1;stroke-width:1.32665" />
    <g
       id="use1646"
       transform="matrix(3.7795276,0,0,3.7795276,17.99999,76.999998)">
      <rect
         style="opacity:0.003;fill:#000000;fill-opacity:1;stroke-width:0.220007"
         id="rect7255"
         width="5.8208332"
         height="5.8208332"
         x="21.431252"
         y="-19.579166" />
      <path
         class="ColorScheme-Text"
         d="m 23.283336,-18.256249 c -0.293158,0 -0.529167,0.236007 -0.529167,0.529166 v 2.116666 c 0,0.29316 0.236009,0.529167 0.529167,0.529167 l 2.116667,1e-6 c 0.293159,0 0.529166,-0.236007 0.529166,-0.529167 v -2.116667 c 0,-0.293159 -0.236007,-0.529166 -0.529166,-0.529166 z m 0,0.264583 2.116667,0 c 0.14658,0 0.264583,0.118005 0.264583,0.264583 v 2.116667 c 0,0.14658 -0.118003,0.264584 -0.264583,0.264584 l -2.116667,-1e-6 c -0.146579,0 -0.264584,-0.118004 -0.264584,-0.264584 v -2.116666 c 0,-0.146578 0.118005,-0.264583 0.264584,-0.264583 z"
         style="color:#232629;opacity:0.4;fill:#ffffff;fill-opacity:1;stroke-width:0.264583"
         id="path7257"
         sodipodi:nodetypes="ssssssssssssssssss" />
    </g>
  </g>
  <g
     id="hover-center"
     transform="translate(0,-8.000073)">
    <rect
       style="opacity:0.15;fill:#ffffff;fill-rule:evenodd;stroke-width:0.272245;stroke-linecap:round;stroke-linejoin:round;paint-order:stroke fill markers"
       id="rect19751"
       width="44"
       height="28"
       x="-3.5527137e-15"
       y="37"
       ry="3.000073" />
    <path
       class="ColorScheme-Text"
       d="m 17.000002,44.084429 c -1.10796,0.0093 -2.000001,0.891998 -2.000001,2.000001 v 10.000002 c 0,1.108002 0.892041,2.009343 2.000001,1.999997 L 27,58.000072 c 1.107964,-0.0093 2.000001,-0.891995 2.000001,-1.999997 V 46.000073 c 0,-1.108003 -0.892037,-2.009347 -2.000001,-2.000001 z m 0,0.999998 L 27,45.00007 c 0.553983,-0.0047 0.999999,0.446003 0.999999,1.000003 v 10.000002 c 0,0.554003 -0.446016,0.995326 -0.999999,0.999999 l -9.999998,0.08436 c -0.553979,0.0047 -0.999999,-0.445996 -0.999999,-0.999999 V 46.08443 c 0,-0.554 0.44602,-0.99533 0.999999,-1.000003 z"
       style="color:#232629;fill:#ffffff;fill-opacity:1;stroke-width:0.999999"
       id="path13200"
       sodipodi:nodetypes="ssssssssssssssssss" />
  </g>
  <g
     id="pressed-center"
     transform="translate(0,21)">
    <rect
       style="opacity:0.1;fill:#ffffff;fill-rule:evenodd;stroke-width:0.272245;stroke-linecap:round;stroke-linejoin:round;paint-order:stroke fill markers"
       id="rect25529"
       width="44"
       height="28"
       x="-3.5527137e-15"
       y="37"
       ry="3" />
    <path
       class="ColorScheme-Text"
       d="m 17.000002,44.084429 c -1.10796,0.0093 -2.000001,0.891998 -2.000001,2.000001 v 10.000002 c 0,1.108002 0.892041,2.009343 2.000001,1.999997 L 27,58.000072 c 1.107964,-0.0093 2.000001,-0.891995 2.000001,-1.999997 V 46.000073 c 0,-1.108003 -0.892037,-2.009347 -2.000001,-2.000001 z m 0,0.999998 L 27,45.00007 c 0.553983,-0.0047 0.999999,0.446003 0.999999,1.000003 v 10.000002 c 0,0.554003 -0.446016,0.995326 -0.999999,0.999999 l -9.999998,0.08436 c -0.553979,0.0047 -0.999999,-0.445996 -0.999999,-0.999999 V 46.08443 c 0,-0.554 0.44602,-0.99533 0.999999,-1.000003 z"
       style="color:#232629;fill:#ffffff;fill-opacity:1;stroke-width:0.999999"
       id="path25531"
       sodipodi:nodetypes="ssssssssssssssssss" />
  </g>
</svg>
